<svg width="1440" height="1024" viewBox="0 0 1440 1024" fill="none" xmlns="http://www.w3.org/2000/svg">
<g clip-path="url(#clip0_1280_152)">
<rect width="1440" height="1024" fill="white"/>
<line x1="0.5" y1="2.18557e-08" x2="0.499955" y2="1024" stroke="black"/>
<line x1="32.5" y1="2.18557e-08" x2="32.5" y2="1024" stroke="black"/>
<line x1="64.5" y1="2.18557e-08" x2="64.5" y2="1024" stroke="black"/>
<line x1="96.5" y1="2.18557e-08" x2="96.5" y2="1024" stroke="black"/>
<line x1="128.5" y1="2.18557e-08" x2="128.5" y2="1024" stroke="black"/>
<line x1="160.5" y1="2.18557e-08" x2="160.5" y2="1024" stroke="black"/>
<line x1="192.5" y1="2.18557e-08" x2="192.5" y2="1024" stroke="black"/>
<line x1="224.5" y1="2.18557e-08" x2="224.5" y2="1024" stroke="black"/>
<line x1="256.5" y1="2.18557e-08" x2="256.5" y2="1024" stroke="black"/>
<line x1="288.5" y1="2.18557e-08" x2="288.5" y2="1024" stroke="black"/>
<line x1="320.5" y1="2.18557e-08" x2="320.5" y2="1024" stroke="black"/>
<line x1="352.5" y1="2.18557e-08" x2="352.5" y2="1024" stroke="black"/>
<line x1="384.5" y1="2.18557e-08" x2="384.5" y2="1024" stroke="black"/>
<line x1="416.5" y1="2.18557e-08" x2="416.5" y2="1024" stroke="black"/>
<line x1="448.501" y1="2.18557e-08" x2="448.501" y2="1024" stroke="black"/>
<line x1="480.501" y1="2.18557e-08" x2="480.501" y2="1024" stroke="black"/>
<line x1="512.501" y1="2.18557e-08" x2="512.501" y2="1024" stroke="black"/>
<line x1="544.501" y1="2.18557e-08" x2="544.501" y2="1024" stroke="black"/>
<line x1="576.501" y1="2.18557e-08" x2="576.501" y2="1024" stroke="black"/>
<line x1="608.501" y1="2.18557e-08" x2="608.501" y2="1024" stroke="black"/>
<line x1="640.501" y1="2.18557e-08" x2="640.501" y2="1024" stroke="black"/>
<line x1="672.501" y1="2.18557e-08" x2="672.501" y2="1024" stroke="black"/>
<line x1="704.501" y1="2.18557e-08" x2="704.501" y2="1024" stroke="black"/>
<line x1="736.501" y1="2.18557e-08" x2="736.501" y2="1024" stroke="black"/>
<line x1="768.501" y1="2.18557e-08" x2="768.501" y2="1024" stroke="black"/>
<line x1="800.501" y1="2.18557e-08" x2="800.501" y2="1024" stroke="black"/>
<line x1="832.501" y1="2.18557e-08" x2="832.501" y2="1024" stroke="black"/>
<line x1="864.501" y1="2.18557e-08" x2="864.501" y2="1024" stroke="black"/>
<line x1="896.501" y1="2.18557e-08" x2="896.501" y2="1024" stroke="black"/>
<line x1="928.502" y1="2.18557e-08" x2="928.502" y2="1024" stroke="black"/>
<line x1="960.502" y1="2.18557e-08" x2="960.502" y2="1024" stroke="black"/>
<line x1="992.502" y1="2.18557e-08" x2="992.502" y2="1024" stroke="black"/>
<line x1="1024.5" y1="2.18557e-08" x2="1024.5" y2="1024" stroke="black"/>
<line x1="1056.5" y1="2.18557e-08" x2="1056.5" y2="1024" stroke="black"/>
<line x1="1088.5" y1="2.18557e-08" x2="1088.5" y2="1024" stroke="black"/>
<line x1="1120.5" y1="2.18557e-08" x2="1120.5" y2="1024" stroke="black"/>
<line x1="1152.5" y1="2.18557e-08" x2="1152.5" y2="1024" stroke="black"/>
<line x1="1184.5" y1="2.18557e-08" x2="1184.5" y2="1024" stroke="black"/>
<line x1="1216.5" y1="2.18557e-08" x2="1216.5" y2="1024" stroke="black"/>
<line x1="1248.5" y1="2.18557e-08" x2="1248.5" y2="1024" stroke="black"/>
<line x1="1280.5" y1="2.18557e-08" x2="1280.5" y2="1024" stroke="black"/>
<line x1="1312.5" y1="2.18557e-08" x2="1312.5" y2="1024" stroke="black"/>
<line x1="1344.5" y1="2.18557e-08" x2="1344.5" y2="1024" stroke="black"/>
<line x1="1376.5" y1="2.18557e-08" x2="1376.5" y2="1024" stroke="black"/>
<line x1="1408.5" y1="2.18557e-08" x2="1408.5" y2="1024" stroke="black"/>
<line x1="1440" y1="0.5" x2="-6.14691e-08" y2="0.49991" stroke="black"/>
<line x1="1440" y1="32.5" x2="-6.14691e-08" y2="32.4999" stroke="black"/>
<line x1="1440" y1="64.5" x2="-6.14691e-08" y2="64.4999" stroke="black"/>
<line x1="1440" y1="96.5" x2="-6.14691e-08" y2="96.4999" stroke="black"/>
<line x1="1440" y1="128.5" x2="-6.14691e-08" y2="128.5" stroke="black"/>
<line x1="1440" y1="160.5" x2="-6.14691e-08" y2="160.5" stroke="black"/>
<line x1="1440" y1="192.5" x2="-6.14691e-08" y2="192.5" stroke="black"/>
<line x1="1440" y1="224.5" x2="-6.14691e-08" y2="224.5" stroke="black"/>
<line x1="1440" y1="256.5" x2="-6.14691e-08" y2="256.5" stroke="black"/>
<line x1="1440" y1="288.5" x2="-6.14691e-08" y2="288.5" stroke="black"/>
<line x1="1440" y1="320.5" x2="-6.14691e-08" y2="320.5" stroke="black"/>
<line x1="1440" y1="352.5" x2="-6.14691e-08" y2="352.5" stroke="black"/>
<line x1="1440" y1="384.5" x2="-6.14691e-08" y2="384.5" stroke="black"/>
<line x1="1440" y1="416.5" x2="-6.14691e-08" y2="416.5" stroke="black"/>
<line x1="1440" y1="448.5" x2="-6.14691e-08" y2="448.5" stroke="black"/>
<line x1="1440" y1="480.5" x2="-6.14691e-08" y2="480.5" stroke="black"/>
<line x1="1440" y1="512.5" x2="-6.14691e-08" y2="512.5" stroke="black"/>
<line x1="1440" y1="544.5" x2="-6.14691e-08" y2="544.5" stroke="black"/>
<line x1="1440" y1="576.5" x2="-6.14691e-08" y2="576.5" stroke="black"/>
<line x1="1440" y1="608.5" x2="-6.14691e-08" y2="608.5" stroke="black"/>
<line x1="1440" y1="640.5" x2="-6.14691e-08" y2="640.5" stroke="black"/>
<line x1="1440" y1="672.5" x2="-6.14691e-08" y2="672.5" stroke="black"/>
<line x1="1440" y1="704.5" x2="-6.14691e-08" y2="704.5" stroke="black"/>
<line x1="1440" y1="736.5" x2="-6.14691e-08" y2="736.5" stroke="black"/>
<line x1="1440" y1="768.5" x2="-6.14691e-08" y2="768.5" stroke="black"/>
<line x1="1440" y1="800.5" x2="-6.14691e-08" y2="800.5" stroke="black"/>
<line x1="1440" y1="832.5" x2="-6.14691e-08" y2="832.5" stroke="black"/>
<line x1="1440" y1="864.5" x2="-6.14691e-08" y2="864.5" stroke="black"/>
<line x1="1440" y1="896.5" x2="-6.14691e-08" y2="896.5" stroke="black"/>
<line x1="1440" y1="928.5" x2="-6.14691e-08" y2="928.5" stroke="black"/>
<line x1="1440" y1="960.5" x2="-6.14691e-08" y2="960.5" stroke="black"/>
<line x1="1440" y1="992.5" x2="-6.14691e-08" y2="992.5" stroke="black"/>
</g>
<defs>
<clipPath id="clip0_1280_152">
<rect width="1440" height="1024" fill="white"/>
</clipPath>
</defs>
</svg>
