<svg width="2305" height="1473" viewBox="0 0 2305 1473" fill="none" xmlns="http://www.w3.org/2000/svg">
<line x1="0.5" y1="2.18557e-08" x2="0.499936" y2="1473" stroke="#DEDCC7"/>
<line x1="32.5" y1="2.18557e-08" x2="32.4999" y2="1473" stroke="#DEDCC7"/>
<line x1="64.5" y1="2.18557e-08" x2="64.4999" y2="1473" stroke="#DEDCC7"/>
<line x1="96.5" y1="2.18557e-08" x2="96.4999" y2="1473" stroke="#DEDCC7"/>
<line x1="128.5" y1="3.14389e-08" x2="128.5" y2="1473" stroke="#DEDCC7"/>
<line x1="160.5" y1="3.14389e-08" x2="160.5" y2="1473" stroke="#DEDCC7"/>
<line x1="192.5" y1="3.14389e-08" x2="192.5" y2="1473" stroke="#DEDCC7"/>
<line x1="224.5" y1="3.14389e-08" x2="224.5" y2="1473" stroke="#DEDCC7"/>
<line x1="256.5" y1="3.14389e-08" x2="256.5" y2="1473" stroke="#DEDCC7"/>
<line x1="288.5" y1="3.14389e-08" x2="288.5" y2="1473" stroke="#DEDCC7"/>
<line x1="320.5" y1="3.14389e-08" x2="320.5" y2="1473" stroke="#DEDCC7"/>
<line x1="352.5" y1="3.14389e-08" x2="352.5" y2="1473" stroke="#DEDCC7"/>
<line x1="384.5" y1="3.14389e-08" x2="384.5" y2="1473" stroke="#DEDCC7"/>
<line x1="416.501" y1="3.14389e-08" x2="416.501" y2="1473" stroke="#DEDCC7"/>
<line x1="448.501" y1="3.14389e-08" x2="448.501" y2="1473" stroke="#DEDCC7"/>
<line x1="480.501" y1="3.14389e-08" x2="480.501" y2="1473" stroke="#DEDCC7"/>
<line x1="512.501" y1="3.14389e-08" x2="512.501" y2="1473" stroke="#DEDCC7"/>
<line x1="544.501" y1="3.14389e-08" x2="544.501" y2="1473" stroke="#DEDCC7"/>
<line x1="576.501" y1="3.14389e-08" x2="576.501" y2="1473" stroke="#DEDCC7"/>
<line x1="608.501" y1="3.14389e-08" x2="608.501" y2="1473" stroke="#DEDCC7"/>
<line x1="640.501" y1="3.14389e-08" x2="640.501" y2="1473" stroke="#DEDCC7"/>
<line x1="672.501" y1="3.14389e-08" x2="672.501" y2="1473" stroke="#DEDCC7"/>
<line x1="704.501" y1="3.14389e-08" x2="704.501" y2="1473" stroke="#DEDCC7"/>
<line x1="736.501" y1="3.14389e-08" x2="736.501" y2="1473" stroke="#DEDCC7"/>
<line x1="768.501" y1="3.14389e-08" x2="768.501" y2="1473" stroke="#DEDCC7"/>
<line x1="800.501" y1="3.14389e-08" x2="800.501" y2="1473" stroke="#DEDCC7"/>
<line x1="832.501" y1="3.14389e-08" x2="832.501" y2="1473" stroke="#DEDCC7"/>
<line x1="864.501" y1="3.14389e-08" x2="864.501" y2="1473" stroke="#DEDCC7"/>
<line x1="896.502" y1="3.14389e-08" x2="896.502" y2="1473" stroke="#DEDCC7"/>
<line x1="928.502" y1="3.14389e-08" x2="928.502" y2="1473" stroke="#DEDCC7"/>
<line x1="960.502" y1="3.14389e-08" x2="960.502" y2="1473" stroke="#DEDCC7"/>
<line x1="992.502" y1="3.14389e-08" x2="992.502" y2="1473" stroke="#DEDCC7"/>
<line x1="1024.5" y1="3.14389e-08" x2="1024.5" y2="1473" stroke="#DEDCC7"/>
<line x1="1056.5" y1="3.14389e-08" x2="1056.5" y2="1473" stroke="#DEDCC7"/>
<line x1="1088.5" y1="3.14389e-08" x2="1088.5" y2="1473" stroke="#DEDCC7"/>
<line x1="1120.5" y1="3.14389e-08" x2="1120.5" y2="1473" stroke="#DEDCC7"/>
<line x1="1152.5" y1="3.14389e-08" x2="1152.5" y2="1473" stroke="#DEDCC7"/>
<line x1="1184.5" y1="3.14389e-08" x2="1184.5" y2="1473" stroke="#DEDCC7"/>
<line x1="1216.5" y1="3.14389e-08" x2="1216.5" y2="1473" stroke="#DEDCC7"/>
<line x1="1248.5" y1="3.14389e-08" x2="1248.5" y2="1473" stroke="#DEDCC7"/>
<line x1="1280.5" y1="3.14389e-08" x2="1280.5" y2="1473" stroke="#DEDCC7"/>
<line x1="1312.5" y1="3.14389e-08" x2="1312.5" y2="1473" stroke="#DEDCC7"/>
<line x1="1344.5" y1="3.14389e-08" x2="1344.5" y2="1473" stroke="#DEDCC7"/>
<line x1="1376.5" y1="3.14389e-08" x2="1376.5" y2="1473" stroke="#DEDCC7"/>
<line x1="1408.5" y1="3.14389e-08" x2="1408.5" y2="1473" stroke="#DEDCC7"/>
<line x1="1440.5" y1="3.14389e-08" x2="1440.5" y2="1473" stroke="#DEDCC7"/>
<line x1="1472.5" y1="3.14389e-08" x2="1472.5" y2="1473" stroke="#DEDCC7"/>
<line x1="1504.5" y1="3.14389e-08" x2="1504.5" y2="1473" stroke="#DEDCC7"/>
<line x1="1536.5" y1="3.14389e-08" x2="1536.5" y2="1473" stroke="#DEDCC7"/>
<line x1="1568.5" y1="3.14389e-08" x2="1568.5" y2="1473" stroke="#DEDCC7"/>
<line x1="1600.5" y1="3.14389e-08" x2="1600.5" y2="1473" stroke="#DEDCC7"/>
<line x1="1632.5" y1="3.14389e-08" x2="1632.5" y2="1473" stroke="#DEDCC7"/>
<line x1="1664.5" y1="3.14389e-08" x2="1664.5" y2="1473" stroke="#DEDCC7"/>
<line x1="1696.5" y1="3.14389e-08" x2="1696.5" y2="1473" stroke="#DEDCC7"/>
<line x1="1728.5" y1="3.14389e-08" x2="1728.5" y2="1473" stroke="#DEDCC7"/>
<line x1="1760.5" y1="3.14389e-08" x2="1760.5" y2="1473" stroke="#DEDCC7"/>
<line x1="1792.5" y1="3.14389e-08" x2="1792.5" y2="1473" stroke="#DEDCC7"/>
<line x1="1824.5" y1="3.14389e-08" x2="1824.5" y2="1473" stroke="#DEDCC7"/>
<line x1="1856.5" y1="3.14389e-08" x2="1856.5" y2="1473" stroke="#DEDCC7"/>
<line x1="1888.5" y1="3.14389e-08" x2="1888.5" y2="1473" stroke="#DEDCC7"/>
<line x1="1920.5" y1="3.14389e-08" x2="1920.5" y2="1473" stroke="#DEDCC7"/>
<line x1="1952.5" y1="3.14389e-08" x2="1952.5" y2="1473" stroke="#DEDCC7"/>
<line x1="1984.5" y1="3.14389e-08" x2="1984.5" y2="1473" stroke="#DEDCC7"/>
<line x1="2016.5" y1="3.14389e-08" x2="2016.5" y2="1473" stroke="#DEDCC7"/>
<line x1="2048.5" y1="3.14389e-08" x2="2048.5" y2="1473" stroke="#DEDCC7"/>
<line x1="2080.5" y1="3.14389e-08" x2="2080.5" y2="1473" stroke="#DEDCC7"/>
<line x1="2112.5" y1="3.14389e-08" x2="2112.5" y2="1473" stroke="#DEDCC7"/>
<line x1="2144.5" y1="3.14389e-08" x2="2144.5" y2="1473" stroke="#DEDCC7"/>
<line x1="2176.5" y1="3.14389e-08" x2="2176.5" y2="1473" stroke="#DEDCC7"/>
<line x1="2208.5" y1="3.14389e-08" x2="2208.5" y2="1473" stroke="#DEDCC7"/>
<line x1="2240.5" y1="3.14389e-08" x2="2240.5" y2="1473" stroke="#DEDCC7"/>
<line x1="2272.5" y1="3.14389e-08" x2="2272.5" y2="1473" stroke="#DEDCC7"/>
<line x1="2304.5" y1="3.14389e-08" x2="2304.5" y2="1473" stroke="#DEDCC7"/>
<line x1="2305" y1="0.5" x2="-9.83932e-08" y2="0.49991" stroke="#DEDCC7"/>
<line x1="2305" y1="32.5" x2="-9.83932e-08" y2="32.4999" stroke="#DEDCC7"/>
<line x1="2305" y1="64.5005" x2="-9.83932e-08" y2="64.5004" stroke="#DEDCC7"/>
<line x1="2305" y1="96.5005" x2="-9.83932e-08" y2="96.5004" stroke="#DEDCC7"/>
<line x1="2305" y1="128.5" x2="-9.83932e-08" y2="128.5" stroke="#DEDCC7"/>
<line x1="2305" y1="160.5" x2="-9.83932e-08" y2="160.5" stroke="#DEDCC7"/>
<line x1="2305" y1="192.5" x2="-9.83932e-08" y2="192.5" stroke="#DEDCC7"/>
<line x1="2305" y1="224.5" x2="-9.83932e-08" y2="224.5" stroke="#DEDCC7"/>
<line x1="2305" y1="256.501" x2="-9.83932e-08" y2="256.501" stroke="#DEDCC7"/>
<line x1="2305" y1="288.501" x2="-9.83932e-08" y2="288.501" stroke="#DEDCC7"/>
<line x1="2305" y1="320.501" x2="-9.83932e-08" y2="320.501" stroke="#DEDCC7"/>
<line x1="2305" y1="352.501" x2="-9.83932e-08" y2="352.501" stroke="#DEDCC7"/>
<line x1="2305" y1="384.501" x2="-9.83932e-08" y2="384.501" stroke="#DEDCC7"/>
<line x1="2305" y1="416.501" x2="-9.83932e-08" y2="416.501" stroke="#DEDCC7"/>
<line x1="2305" y1="448.501" x2="-9.83932e-08" y2="448.501" stroke="#DEDCC7"/>
<line x1="2305" y1="480.501" x2="-9.83932e-08" y2="480.501" stroke="#DEDCC7"/>
<line x1="2305" y1="512.501" x2="-9.83932e-08" y2="512.501" stroke="#DEDCC7"/>
<line x1="2305" y1="544.501" x2="-9.83932e-08" y2="544.501" stroke="#DEDCC7"/>
<line x1="2305" y1="576.501" x2="-9.83932e-08" y2="576.501" stroke="#DEDCC7"/>
<line x1="2305" y1="608.501" x2="-9.83932e-08" y2="608.501" stroke="#DEDCC7"/>
<line x1="2305" y1="640.502" x2="-9.83932e-08" y2="640.502" stroke="#DEDCC7"/>
<line x1="2305" y1="672.502" x2="-9.83932e-08" y2="672.502" stroke="#DEDCC7"/>
<line x1="2305" y1="704.502" x2="-9.83932e-08" y2="704.502" stroke="#DEDCC7"/>
<line x1="2305" y1="736.502" x2="-9.83932e-08" y2="736.502" stroke="#DEDCC7"/>
<line x1="2305" y1="768.502" x2="-9.83932e-08" y2="768.502" stroke="#DEDCC7"/>
<line x1="2305" y1="800.502" x2="-9.83932e-08" y2="800.502" stroke="#DEDCC7"/>
<line x1="2305" y1="832.502" x2="-9.83932e-08" y2="832.502" stroke="#DEDCC7"/>
<line x1="2305" y1="864.502" x2="-9.83932e-08" y2="864.502" stroke="#DEDCC7"/>
<line x1="2305" y1="896.502" x2="-9.83932e-08" y2="896.502" stroke="#DEDCC7"/>
<line x1="2305" y1="928.502" x2="-9.83932e-08" y2="928.502" stroke="#DEDCC7"/>
<line x1="2305" y1="960.502" x2="-9.83932e-08" y2="960.502" stroke="#DEDCC7"/>
<line x1="2305" y1="992.502" x2="-9.83932e-08" y2="992.502" stroke="#DEDCC7"/>
<line x1="2305" y1="1024.5" x2="-9.83932e-08" y2="1024.5" stroke="#DEDCC7"/>
<line x1="2305" y1="1056.5" x2="-9.83932e-08" y2="1056.5" stroke="#DEDCC7"/>
<line x1="2305" y1="1088.5" x2="-9.83932e-08" y2="1088.5" stroke="#DEDCC7"/>
<line x1="2305" y1="1120.5" x2="-9.83932e-08" y2="1120.5" stroke="#DEDCC7"/>
<line x1="2305" y1="1152.5" x2="-9.83932e-08" y2="1152.5" stroke="#DEDCC7"/>
<line x1="2305" y1="1184.5" x2="-9.83932e-08" y2="1184.5" stroke="#DEDCC7"/>
<line x1="2305" y1="1216.5" x2="-9.83932e-08" y2="1216.5" stroke="#DEDCC7"/>
<line x1="2305" y1="1248.5" x2="-9.83932e-08" y2="1248.5" stroke="#DEDCC7"/>
<line x1="2305" y1="1280.5" x2="-9.83932e-08" y2="1280.5" stroke="#DEDCC7"/>
<line x1="2305" y1="1312.5" x2="-9.83932e-08" y2="1312.5" stroke="#DEDCC7"/>
<line x1="2305" y1="1344.5" x2="-9.83932e-08" y2="1344.5" stroke="#DEDCC7"/>
<line x1="2305" y1="1376.5" x2="-9.83932e-08" y2="1376.5" stroke="#DEDCC7"/>
<line x1="2305" y1="1408.5" x2="-9.83932e-08" y2="1408.5" stroke="#DEDCC7"/>
<line x1="2305" y1="1440.5" x2="-9.83932e-08" y2="1440.5" stroke="#DEDCC7"/>
<line x1="2305" y1="1472.5" x2="-9.83932e-08" y2="1472.5" stroke="#DEDCC7"/>
</svg>
