<?xml version="1.0" encoding="UTF-8"?><svg id="Layer_2" xmlns="http://www.w3.org/2000/svg" viewBox="0 0 844.35 660.8"><defs><style>.cls-1{fill:#e6e6e6;}.cls-2{fill:#151515;}</style></defs><g id="_ò__1"><rect class="cls-2" x="36.71" y="73.42" width="36.71" height="36.71"/><rect class="cls-1" y="110.13" width="36.71" height="36.71"/><rect class="cls-1" y="146.84" width="36.71" height="36.71"/><rect class="cls-1" y="330.4" width="36.71" height="36.71"/><rect class="cls-1" y="367.11" width="36.71" height="36.71"/><rect class="cls-1" y="403.82" width="36.71" height="36.71"/><rect class="cls-1" y="440.53" width="36.71" height="36.71"/><rect class="cls-1" x="36.71" y="477.24" width="36.71" height="36.71"/><rect class="cls-1" x="73.42" y="513.95" width="36.71" height="36.71"/><rect class="cls-1" x="110.13" y="550.66" width="36.71" height="36.71"/><rect class="cls-1" x="110.13" y="587.37" width="36.71" height="36.71"/><rect class="cls-1" x="110.13" y="624.09" width="36.71" height="36.71"/><rect class="cls-1" x="183.55" y="624.09" width="36.71" height="36.71"/><rect class="cls-1" x="220.27" y="587.37" width="36.71" height="36.71"/><rect class="cls-1" x="256.98" y="550.66" width="36.71" height="36.71"/><rect class="cls-1" x="293.69" y="550.66" width="36.71" height="36.71"/><rect class="cls-1" x="330.4" y="550.66" width="36.71" height="36.71"/><rect class="cls-1" x="367.11" y="550.66" width="36.71" height="36.71"/><rect class="cls-1" x="403.82" y="550.66" width="36.71" height="36.71"/><rect class="cls-1" x="440.53" y="550.66" width="36.71" height="36.71"/><rect class="cls-1" x="477.24" y="550.66" width="36.71" height="36.71"/><rect class="cls-1" x="513.95" y="550.66" width="36.71" height="36.71"/><rect class="cls-1" x="550.66" y="550.66" width="36.71" height="36.71"/><rect class="cls-1" x="587.37" y="550.66" width="36.71" height="36.71"/><rect class="cls-1" x="624.09" y="550.66" width="36.71" height="36.71"/><rect class="cls-1" x="660.8" y="550.66" width="36.71" height="36.71"/><rect class="cls-1" x="697.51" y="550.66" width="36.71" height="36.71"/><rect class="cls-2" x="73.42" y="36.71" width="36.71" height="36.71"/><rect class="cls-2" x="110.13" width="36.71" height="36.71"/><rect class="cls-2" x="146.84" width="36.71" height="36.71"/><rect class="cls-2" x="183.55" width="36.71" height="36.71"/><rect class="cls-2" x="220.27" width="36.71" height="36.71"/><rect class="cls-2" x="256.98" width="36.71" height="36.71"/><rect class="cls-2" x="293.69" width="36.71" height="36.71"/><rect class="cls-2" x="330.4" width="36.71" height="36.71"/><rect class="cls-2" x="367.11" width="36.71" height="36.71"/><rect class="cls-2" x="403.82" width="36.71" height="36.71"/><rect class="cls-2" x="440.53" width="36.71" height="36.71"/><rect class="cls-2" x="477.24" width="36.71" height="36.71"/><rect class="cls-2" x="513.95" width="36.71" height="36.71"/><rect class="cls-2" x="550.66" width="36.71" height="36.71"/><rect class="cls-2" x="587.37" width="36.71" height="36.71"/><rect class="cls-2" x="624.09" width="36.71" height="36.71"/><rect class="cls-2" x="660.8" width="36.71" height="36.71"/><rect class="cls-2" x="697.51" width="36.71" height="36.71"/><rect class="cls-2" x="734.22" width="36.71" height="36.71"/><rect class="cls-2" x="770.93" y="36.71" width="36.71" height="36.71"/><rect class="cls-2" x="770.93" y="477.24" width="36.71" height="36.71" transform="translate(1578.57 991.19) rotate(180)"/><rect class="cls-2" x="734.22" y="513.95" width="36.71" height="36.71" transform="translate(1505.15 1064.62) rotate(180)"/><rect class="cls-2" x="697.51" y="513.95" width="36.71" height="36.71" transform="translate(1431.72 1064.62) rotate(180)"/><rect class="cls-2" x="660.8" y="513.95" width="36.71" height="36.71" transform="translate(1358.3 1064.62) rotate(180)"/><rect class="cls-2" x="624.09" y="513.95" width="36.71" height="36.71" transform="translate(1284.88 1064.62) rotate(180)"/><rect class="cls-2" x="587.37" y="513.95" width="36.71" height="36.71" transform="translate(1211.46 1064.62) rotate(180)"/><rect class="cls-2" x="550.66" y="513.95" width="36.71" height="36.71" transform="translate(1138.04 1064.62) rotate(180)"/><rect class="cls-2" x="513.95" y="513.95" width="36.71" height="36.71" transform="translate(1064.62 1064.62) rotate(180)"/><rect class="cls-2" x="477.24" y="513.95" width="36.71" height="36.71" transform="translate(991.19 1064.62) rotate(180)"/><rect class="cls-2" x="440.53" y="513.95" width="36.71" height="36.71" transform="translate(917.77 1064.62) rotate(180)"/><rect class="cls-2" x="403.82" y="513.95" width="36.71" height="36.71" transform="translate(844.35 1064.62) rotate(180)"/><rect class="cls-2" x="367.11" y="513.95" width="36.71" height="36.71" transform="translate(770.93 1064.62) rotate(180)"/><rect class="cls-2" x="110.13" y="513.95" width="36.71" height="36.71" transform="translate(256.98 1064.62) rotate(180)"/><rect class="cls-2" x="146.84" y="550.66" width="36.71" height="36.71" transform="translate(330.4 1138.04) rotate(180)"/><rect class="cls-2" x="146.84" y="513.95" width="36.71" height="36.71" transform="translate(330.4 1064.62) rotate(180)"/><rect class="cls-2" x="146.84" y="587.37" width="36.71" height="36.71" transform="translate(330.4 1211.46) rotate(180)"/><rect class="cls-2" x="146.84" y="624.09" width="36.71" height="36.71" transform="translate(330.4 1284.88) rotate(180)"/><rect class="cls-2" x="183.55" y="587.37" width="36.71" height="36.71" transform="translate(403.82 1211.46) rotate(180)"/><rect class="cls-2" x="220.27" y="550.66" width="36.71" height="36.71" transform="translate(477.24 1138.04) rotate(180)"/><rect class="cls-2" x="256.98" y="513.95" width="36.71" height="36.71" transform="translate(550.66 1064.62) rotate(180)"/><rect class="cls-2" x="293.69" y="513.95" width="36.71" height="36.71" transform="translate(624.09 1064.62) rotate(180)"/><rect class="cls-2" x="330.4" y="513.95" width="36.71" height="36.71" transform="translate(697.51 1064.62) rotate(180)"/><rect class="cls-2" x="73.42" y="477.24" width="36.71" height="36.71" transform="translate(183.55 991.19) rotate(180)"/><rect class="cls-2" x="807.64" y="73.42" width="36.71" height="36.71"/><rect class="cls-2" x="36.71" y="110.13" width="36.71" height="36.71"/><rect class="cls-2" x="807.64" y="110.13" width="36.71" height="36.71"/><rect class="cls-2" x="36.71" y="146.84" width="36.71" height="36.71"/><rect class="cls-2" x="807.64" y="146.84" width="36.71" height="36.71"/><rect class="cls-2" x="36.71" y="330.4" width="36.71" height="36.71"/><rect class="cls-2" x="807.64" y="330.4" width="36.71" height="36.71"/><rect class="cls-2" x="36.71" y="367.11" width="36.71" height="36.71"/><rect class="cls-2" x="807.64" y="367.11" width="36.71" height="36.71"/><rect class="cls-2" x="36.71" y="403.82" width="36.71" height="36.71"/><rect class="cls-2" x="807.64" y="403.82" width="36.71" height="36.71"/><rect class="cls-2" x="36.71" y="440.53" width="36.71" height="36.71"/><rect class="cls-2" x="807.64" y="440.53" width="36.71" height="36.71"/><rect class="cls-1" y="183.55" width="36.71" height="36.71"/><rect class="cls-1" y="220.27" width="36.71" height="36.71"/><rect class="cls-1" y="256.98" width="36.71" height="36.71"/><rect class="cls-1" y="293.69" width="36.71" height="36.71"/><rect class="cls-2" x="36.71" y="183.55" width="36.71" height="36.71"/><rect class="cls-2" x="807.64" y="183.55" width="36.71" height="36.71"/><rect class="cls-2" x="36.71" y="220.27" width="36.71" height="36.71"/><rect class="cls-2" x="807.64" y="220.27" width="36.71" height="36.71"/><rect class="cls-2" x="36.71" y="256.98" width="36.71" height="36.71"/><rect class="cls-2" x="807.64" y="256.98" width="36.71" height="36.71"/><rect class="cls-2" x="36.71" y="293.69" width="36.71" height="36.71"/><rect class="cls-2" x="807.64" y="293.69" width="36.71" height="36.71"/></g></svg>